<svg width="13" height="13" viewBox="0 0 13 13" fill="none" xmlns="http://www.w3.org/2000/svg">
<path d="M10.7967 3.375H2.20296C2.04673 3.37496 1.89208 3.40615 1.74809 3.46675C1.6041 3.52734 1.47368 3.61611 1.3645 3.72784C1.25531 3.83958 1.16957 3.97201 1.11231 4.11736C1.05505 4.26271 1.02744 4.41804 1.03108 4.57422V8.42578C1.02744 8.58196 1.05505 8.73729 1.11231 8.88264C1.16957 9.02799 1.25531 9.16042 1.3645 9.27216C1.47368 9.38389 1.6041 9.47266 1.74809 9.53325C1.89208 9.59385 2.04673 9.62504 2.20296 9.625H2.59358V7.67188C2.59358 7.25747 2.7582 6.86005 3.05123 6.56702C3.34425 6.274 3.74168 6.10938 4.15608 6.10938H8.84358C9.25798 6.10938 9.65541 6.274 9.94843 6.56702C10.2415 6.86005 10.4061 7.25747 10.4061 7.67188V9.625H10.7967C10.9529 9.62504 11.1076 9.59385 11.2516 9.53325C11.3956 9.47266 11.526 9.38389 11.6352 9.27216C11.7443 9.16042 11.8301 9.02799 11.8873 8.88264C11.9446 8.73729 11.9722 8.58196 11.9686 8.42578V4.57422C11.9722 4.41804 11.9446 4.26271 11.8873 4.11736C11.8301 3.97201 11.7443 3.83958 11.6352 3.72784C11.526 3.61611 11.3956 3.52734 11.2516 3.46675C11.1076 3.40615 10.9529 3.37496 10.7967 3.375ZM10.3514 5.13281C10.3173 5.19185 10.2684 5.24094 10.2094 5.27521C10.1505 5.30947 10.0836 5.32771 10.0155 5.32812H9.23421C9.16604 5.32771 9.09916 5.30947 9.04023 5.27521C8.98129 5.24094 8.93235 5.19185 8.89827 5.13281C8.86316 5.07366 8.84429 5.00628 8.84358 4.9375C8.84358 4.8339 8.88473 4.73454 8.95799 4.66129C9.03125 4.58803 9.1306 4.54688 9.23421 4.54688H10.0155C10.1191 4.54688 10.2184 4.58803 10.2917 4.66129C10.3649 4.73454 10.4061 4.8339 10.4061 4.9375C10.4054 5.00628 10.3865 5.07366 10.3514 5.13281Z" fill="#005085"/>
<path d="M8.84375 2.59375H9.625V1.8125C9.625 1.6053 9.54269 1.40659 9.39618 1.26007C9.24966 1.11356 9.05095 1.03125 8.84375 1.03125H4.15625C3.94905 1.03125 3.75034 1.11356 3.60382 1.26007C3.45731 1.40659 3.375 1.6053 3.375 1.8125V2.59375H8.84375Z" fill="#005085"/>
<path d="M8.84375 6.89062H4.15625C3.94905 6.89062 3.75034 6.97294 3.60382 7.11945C3.45731 7.26596 3.375 7.46467 3.375 7.67188V11.1875C3.375 11.3947 3.45731 11.5934 3.60382 11.7399C3.75034 11.8864 3.94905 11.9688 4.15625 11.9688H8.84375C9.05095 11.9688 9.24966 11.8864 9.39618 11.7399C9.54269 11.5934 9.625 11.3947 9.625 11.1875V7.67188C9.625 7.46467 9.54269 7.26596 9.39618 7.11945C9.24966 6.97294 9.05095 6.89062 8.84375 6.89062ZM7.67188 10.4062H5.32812C5.22452 10.4062 5.12517 10.3651 5.05191 10.2918C4.97866 10.2186 4.9375 10.1192 4.9375 10.0156C4.9375 9.91202 4.97866 9.81267 5.05191 9.73941C5.12517 9.66615 5.22452 9.625 5.32812 9.625H7.67188C7.77548 9.625 7.87483 9.66615 7.94809 9.73941C8.02135 9.81267 8.0625 9.91202 8.0625 10.0156C8.0625 10.1192 8.02135 10.2186 7.94809 10.2918C7.87483 10.3651 7.77548 10.4062 7.67188 10.4062ZM7.67188 9.23438H5.32812C5.22452 9.23438 5.12517 9.19322 5.05191 9.11996C4.97866 9.04671 4.9375 8.94735 4.9375 8.84375C4.9375 8.74015 4.97866 8.64079 5.05191 8.56754C5.12517 8.49428 5.22452 8.45312 5.32812 8.45312H7.67188C7.77548 8.45312 7.87483 8.49428 7.94809 8.56754C8.02135 8.64079 8.0625 8.74015 8.0625 8.84375C8.0625 8.94735 8.02135 9.04671 7.94809 9.11996C7.87483 9.19322 7.77548 9.23438 7.67188 9.23438Z" fill="#005085"/>
</svg>
