<svg width="13" height="13" viewBox="0 0 13 13" fill="none" xmlns="http://www.w3.org/2000/svg">
<g clip-path="url(#clip0_50_639)">
<path d="M7.54465 7.90847C7.23367 8.1158 6.87244 8.22539 6.5 8.22539C6.12759 8.22539 5.76636 8.1158 5.45537 7.90847L0.333228 4.4936C0.30481 4.47466 0.277124 4.45491 0.25 4.43459V10.0302C0.25 10.6718 0.77063 11.1809 1.40071 11.1809H11.5993C12.2408 11.1809 12.75 10.6603 12.75 10.0302V4.43457C12.7228 4.45493 12.6951 4.47473 12.6666 4.4937L7.54465 7.90847Z" fill="#005085"/>
<path d="M0.739502 3.88433L5.86165 7.29922C6.05554 7.42849 6.27776 7.49312 6.49998 7.49312C6.72222 7.49312 6.94446 7.42847 7.13835 7.29922L12.2605 3.88433C12.567 3.6801 12.75 3.33831 12.75 2.96941C12.75 2.33511 12.234 1.81909 11.5997 1.81909H1.40032C0.76604 1.81912 0.25 2.33513 0.25 2.97002C0.25 3.33831 0.433008 3.6801 0.739502 3.88433Z" fill="#005085"/>
</g>
<defs>
<clipPath id="clip0_50_639">
<rect width="12.5" height="12.5" fill="white" transform="translate(0.25 0.25)"/>
</clipPath>
</defs>
</svg>
