<svg width="13" height="13" viewBox="0 0 13 13" fill="none" xmlns="http://www.w3.org/2000/svg">
<g clip-path="url(#clip0_50_629)">
<path d="M10.8538 8.95007C10.0987 8.30422 9.33238 7.913 8.58653 8.55788L8.14116 8.94763C7.81531 9.23056 7.20946 10.5525 4.86702 7.85788C2.52507 5.16666 3.91872 4.74763 4.24507 4.46714L4.69287 4.0769C5.43482 3.43056 5.15482 2.6169 4.6197 1.77934L4.29677 1.27202C3.75921 0.436412 3.17385 -0.112368 2.42994 0.532998L2.02799 0.884217C1.69921 1.12373 0.780188 1.90227 0.557261 3.38129C0.288968 5.15592 1.13531 7.18812 3.07433 9.41788C5.01092 11.6486 6.90702 12.7691 8.70311 12.7496C10.1958 12.7335 11.0973 11.9325 11.3792 11.6413L11.7826 11.2896C12.5246 10.6447 12.0636 9.98812 11.308 9.3408L10.8538 8.95007Z" fill="#005085"/>
</g>
<defs>
<clipPath id="clip0_50_629">
<rect width="12.5" height="12.5" fill="white" transform="translate(0.0834961 0.25)"/>
</clipPath>
</defs>
</svg>
