<svg width="13" height="13" viewBox="0 0 13 13" fill="none" xmlns="http://www.w3.org/2000/svg">
<g clip-path="url(#clip0_50_659)">
<path d="M6.5 0.25C3.91562 0.25 1.8125 2.36771 1.8125 4.97135C1.8125 8.67083 6.05937 12.4906 6.2401 12.651C6.31458 12.7172 6.40729 12.75 6.5 12.75C6.59271 12.75 6.68542 12.7172 6.7599 12.6516C6.94062 12.4906 11.1875 8.67083 11.1875 4.97135C11.1875 2.36771 9.08437 0.25 6.5 0.25ZM6.5 7.54167C5.06406 7.54167 3.89583 6.37344 3.89583 4.9375C3.89583 3.50156 5.06406 2.33333 6.5 2.33333C7.93594 2.33333 9.10417 3.50156 9.10417 4.9375C9.10417 6.37344 7.93594 7.54167 6.5 7.54167Z" fill="#005085"/>
</g>
<defs>
<clipPath id="clip0_50_659">
<rect width="12.5" height="12.5" fill="white" transform="translate(0.25 0.25)"/>
</clipPath>
</defs>
</svg>
